<svg width="141" height="66" viewBox="0 0 141 66" fill="none" xmlns="http://www.w3.org/2000/svg">
<path d="M0.40125 24.096V23.296L1.04125 23.232C1.78792 23.1467 2.35325 23.04 2.73725 22.912C3.14258 22.7627 3.41992 22.464 3.56925 22.016C3.71858 21.5467 3.79325 20.7893 3.79325 19.744V5.536C3.79325 4.46933 3.71858 3.712 3.56925 3.264C3.41992 2.816 3.14258 2.528 2.73725 2.4C2.35325 2.25067 1.78792 2.13333 1.04125 2.048L0.40125 1.984V1.184L5.13725 1.28H6.92925L14.5453 19.744L22.9613 1.28H24.8813L29.3613 1.184V1.984L28.7213 2.048C27.9959 2.13333 27.4306 2.25067 27.0253 2.4C26.6199 2.528 26.3426 2.816 26.1933 3.264C26.0439 3.712 25.9693 4.46933 25.9693 5.536V19.744C25.9693 20.7893 26.0439 21.5467 26.1933 22.016C26.3426 22.4853 26.6199 22.784 27.0253 22.912C27.4306 23.04 27.9959 23.1467 28.7213 23.232L29.3613 23.296V24.096L24.6253 24L19.8573 24.096V23.296L20.4973 23.232C21.2439 23.1467 21.8093 23.04 22.1933 22.912C22.5986 22.784 22.8759 22.4853 23.0253 22.016C23.1746 21.5467 23.2493 20.7893 23.2493 19.744V3.296L13.7773 24H13.1693L4.91325 3.616V20.64C4.91325 21.3227 4.99858 21.8347 5.16925 22.176C5.33992 22.5173 5.61725 22.7627 6.00125 22.912C6.40658 23.04 6.96125 23.1467 7.66525 23.232L8.30525 23.296V24.096L4.24125 24L0.40125 24.096ZM30.1762 24.096V23.296L30.4642 23.264C31.2109 23.1573 31.8189 23.008 32.2883 22.816C32.7789 22.624 33.1949 22.3147 33.5363 21.888C33.8989 21.44 34.2403 20.832 34.5603 20.064L42.3043 1.28H43.3923L50.9443 20.064C51.3709 21.1093 51.8296 21.8773 52.3203 22.368C52.8109 22.8587 53.4829 23.1467 54.3363 23.232L54.9763 23.296V24.096L51.0083 24L45.8883 24.096V23.296L46.5283 23.232C47.2749 23.1467 47.8083 22.9867 48.1283 22.752C48.4483 22.5173 48.6083 22.1867 48.6083 21.76C48.6083 21.3333 48.4589 20.7573 48.1603 20.032L46.4963 15.872H37.4723L35.7443 20.032C35.5949 20.416 35.4669 20.768 35.3602 21.088C35.2536 21.3867 35.2003 21.6533 35.2003 21.888C35.2003 22.2933 35.3709 22.6027 35.7123 22.816C36.0749 23.0293 36.6616 23.168 37.4723 23.232L38.1123 23.296V24.096L34.0483 24L30.1762 24.096ZM37.8883 14.848H46.1123L42.0803 4.704L37.8883 14.848ZM55.748 24.128V23.328L56.388 23.264C57.1347 23.1787 57.7 23.072 58.084 22.944C58.4893 22.816 58.7667 22.5173 58.916 22.048C59.0653 21.5787 59.14 20.8107 59.14 19.744V3.232C58.948 2.99733 58.66 2.74133 58.276 2.464C57.892 2.16533 57.3267 2.016 56.58 2.016H55.62V1.184L61.828 1.28C62.212 1.81333 62.724 2.51733 63.364 3.392C64.0253 4.26667 64.7507 5.23733 65.54 6.304C66.3507 7.37067 67.1827 8.46933 68.036 9.6C68.8893 10.7093 69.7107 11.7867 70.5 12.832C71.3107 13.8773 72.036 14.816 72.676 15.648C73.316 16.48 73.8173 17.1413 74.18 17.632V5.536C74.18 4.46933 74.1053 3.712 73.956 3.264C73.8067 2.79467 73.5293 2.496 73.124 2.368C72.74 2.21867 72.1747 2.112 71.428 2.048L70.788 1.984V1.184L74.948 1.28L78.852 1.184V1.984L78.212 2.048C77.4867 2.13333 76.9213 2.25067 76.516 2.4C76.1107 2.528 75.8333 2.816 75.684 3.264C75.5347 3.712 75.46 4.46933 75.46 5.536V24H74.5C74.1587 23.296 73.6467 22.432 72.964 21.408C72.3027 20.3627 71.5347 19.2213 70.66 17.984C69.7853 16.7467 68.868 15.488 67.908 14.208C66.9693 12.9067 66.0307 11.648 65.092 10.432C64.1533 9.216 63.2787 8.10667 62.468 7.104C61.6573 6.10133 60.9747 5.26933 60.42 4.608V19.744C60.42 20.8107 60.4947 21.5787 60.644 22.048C60.7933 22.5173 61.0707 22.816 61.476 22.944C61.8813 23.072 62.4467 23.1787 63.172 23.264L63.812 23.328V24.128L59.716 24L55.748 24.128ZM77.7387 24.096V23.296L78.0267 23.264C78.7734 23.1573 79.3814 23.008 79.8508 22.816C80.3414 22.624 80.7574 22.3147 81.0988 21.888C81.4614 21.44 81.8028 20.832 82.1228 20.064L89.8668 1.28H90.9548L98.5068 20.064C98.9334 21.1093 99.3921 21.8773 99.8828 22.368C100.373 22.8587 101.045 23.1467 101.899 23.232L102.539 23.296V24.096L98.5708 24L93.4508 24.096V23.296L94.0908 23.232C94.8374 23.1467 95.3708 22.9867 95.6908 22.752C96.0108 22.5173 96.1708 22.1867 96.1708 21.76C96.1708 21.3333 96.0214 20.7573 95.7228 20.032L94.0588 15.872H85.0348L83.3068 20.032C83.1574 20.416 83.0294 20.768 82.9227 21.088C82.8161 21.3867 82.7628 21.6533 82.7628 21.888C82.7628 22.2933 82.9334 22.6027 83.2748 22.816C83.6374 23.0293 84.2241 23.168 85.0348 23.232L85.6748 23.296V24.096L81.6108 24L77.7387 24.096ZM85.4508 14.848H93.6748L89.6428 4.704L85.4508 14.848ZM113.389 24.352C110.723 24.352 108.653 23.7653 107.181 22.592C105.709 21.4187 104.973 19.5093 104.973 16.864V5.536C104.973 4.46933 104.899 3.712 104.749 3.264C104.6 2.816 104.323 2.528 103.917 2.4C103.533 2.25067 102.968 2.13333 102.221 2.048L101.581 1.984V1.184L106.317 1.28H106.349L111.085 1.184V1.984L110.445 2.048C109.72 2.13333 109.155 2.25067 108.749 2.4C108.344 2.528 108.067 2.816 107.917 3.264C107.768 3.712 107.693 4.46933 107.693 5.536V16.864C107.693 19.0187 108.28 20.6293 109.453 21.696C110.627 22.7627 112.141 23.296 113.997 23.296C116.152 23.296 117.709 22.7093 118.669 21.536C119.629 20.3413 120.109 18.72 120.109 16.672V5.536C120.109 4.46933 120.035 3.712 119.885 3.264C119.736 2.816 119.459 2.528 119.053 2.4C118.669 2.25067 118.104 2.13333 117.357 2.048L116.717 1.984V1.184L121.453 1.248L124.621 1.184V1.984L123.981 2.048C123.256 2.13333 122.691 2.25067 122.285 2.4C121.88 2.528 121.603 2.816 121.453 3.264C121.304 3.712 121.229 4.46933 121.229 5.536V16.672C121.229 19.1467 120.579 21.0453 119.277 22.368C117.976 23.6907 116.013 24.352 113.389 24.352ZM134.669 24.352C133.816 24.352 133.037 24.2133 132.333 23.936C131.651 23.6587 131.032 23.3813 130.477 23.104C130.008 22.848 129.613 22.656 129.293 22.528C128.995 22.4 128.728 22.336 128.493 22.336C128.195 22.336 127.981 22.464 127.853 22.72C127.747 22.9547 127.661 23.2213 127.597 23.52L127.501 24H126.701L126.861 20.224L126.765 16.096H127.565L127.917 17.6C128.152 18.5387 128.568 19.456 129.165 20.352C129.784 21.248 130.552 21.984 131.469 22.56C132.408 23.136 133.475 23.424 134.669 23.424C135.331 23.424 135.96 23.2853 136.557 23.008C137.176 22.7093 137.677 22.2613 138.061 21.664C138.467 21.0667 138.669 20.288 138.669 19.328C138.669 17.8987 138.2 16.7467 137.261 15.872C136.344 14.9973 135.064 14.1653 133.421 13.376L132.077 12.736C130.477 11.968 129.283 11.1253 128.493 10.208C127.725 9.26933 127.341 8.07467 127.341 6.624C127.341 5.49333 127.619 4.49067 128.173 3.616C128.728 2.74133 129.485 2.05867 130.445 1.568C131.427 1.07733 132.547 0.831999 133.805 0.831999C134.68 0.831999 135.416 0.949332 136.013 1.184C136.611 1.41867 137.08 1.62133 137.421 1.792C137.976 2.06933 138.413 2.208 138.733 2.208C139.075 2.208 139.277 1.87733 139.341 1.216H140.141L140.045 4.288L140.109 7.392H139.309C139.181 6.19733 138.851 5.184 138.317 4.352C137.784 3.49867 137.133 2.848 136.365 2.4C135.619 1.952 134.819 1.728 133.965 1.728C132.707 1.728 131.683 2.09067 130.893 2.816C130.125 3.54133 129.741 4.46933 129.741 5.6C129.741 6.816 130.136 7.776 130.925 8.48C131.715 9.16267 132.739 9.81333 133.997 10.432L135.309 11.072C136.483 11.648 137.485 12.2453 138.317 12.864C139.171 13.4613 139.821 14.1653 140.269 14.976C140.739 15.7867 140.973 16.8 140.973 18.016C140.973 19.2747 140.685 20.384 140.109 21.344C139.555 22.304 138.797 23.0507 137.837 23.584C136.899 24.096 135.843 24.352 134.669 24.352ZM2.10813 65.096V64.296L2.74813 64.232C3.49479 64.1467 4.06013 64.04 4.44413 63.912C4.84946 63.7627 5.12679 63.464 5.27613 63.016C5.44679 62.5467 5.53212 61.7893 5.53212 60.744V46.536C5.53212 45.4693 5.45746 44.712 5.30813 44.264C5.15879 43.816 4.88146 43.528 4.47613 43.4C4.09213 43.2507 3.52679 43.1333 2.78013 43.048L2.14013 42.984V42.184L6.87613 42.28H11.3881C14.2681 42.28 16.7001 42.664 18.6841 43.432C20.6895 44.2 22.2148 45.416 23.2601 47.08C24.3055 48.7227 24.8281 50.8773 24.8281 53.544C24.8281 55.4427 24.5081 57.1067 23.8681 58.536C23.2281 59.9653 22.3535 61.16 21.2441 62.12C20.1348 63.08 18.8655 63.8053 17.4361 64.296C16.0281 64.7653 14.5455 65 12.9881 65H6.84413L2.10813 65.096ZM10.3961 64.04H13.1161C15.7188 64.04 17.8095 63.1973 19.3881 61.512C20.9668 59.8053 21.7561 57.1707 21.7561 53.608C21.7561 51.432 21.4468 49.576 20.8281 48.04C20.2308 46.4827 19.2388 45.2987 17.8521 44.488C16.4868 43.656 14.6415 43.24 12.3161 43.24H8.28413V60.328C8.28413 60.9467 8.32679 61.544 8.41213 62.12C8.49746 62.6747 8.68946 63.1333 8.98813 63.496C9.28679 63.8587 9.75613 64.04 10.3961 64.04ZM26.8269 65.096V64.296L27.4669 64.232C28.2135 64.1467 28.7789 64.04 29.1629 63.912C29.5682 63.7627 29.8455 63.464 29.9949 63.016C30.1442 62.5467 30.2189 61.7893 30.2189 60.744V46.536C30.2189 45.4693 30.1442 44.712 29.9949 44.264C29.8455 43.816 29.5682 43.528 29.1629 43.4C28.7789 43.2507 28.2135 43.1333 27.4669 43.048L26.8269 42.984V42.184L31.5629 42.28H31.5949L36.3309 42.184V42.984L35.6909 43.048C34.9655 43.1333 34.4002 43.2507 33.9949 43.4C33.5895 43.528 33.3122 43.816 33.1629 44.264C33.0135 44.712 32.9389 45.4693 32.9389 46.536V60.744C32.9389 61.7893 33.0135 62.5467 33.1629 63.016C33.3122 63.464 33.5895 63.7627 33.9949 63.912C34.4002 64.04 34.9655 64.1467 35.6909 64.232L36.3309 64.296V65.096L31.5949 65H31.5629L26.8269 65.096ZM50.2174 65.352C48.2547 65.352 46.4627 64.872 44.8414 63.912C43.2414 62.952 41.9614 61.5973 41.0014 59.848C40.0627 58.0987 39.5934 56.0293 39.5934 53.64C39.5934 51.912 39.8814 50.3227 40.4574 48.872C41.0334 47.4213 41.8227 46.1733 42.8254 45.128C43.828 44.0827 44.98 43.272 46.2814 42.696C47.5827 42.12 48.9587 41.832 50.4094 41.832C51.348 41.832 52.1907 41.9493 52.9374 42.184C53.684 42.4187 54.292 42.6427 54.7614 42.856C55.316 43.0907 55.7 43.2507 55.9134 43.336C56.148 43.4213 56.404 43.464 56.6814 43.464C56.98 43.464 57.1827 43.336 57.2894 43.08C57.4174 42.8027 57.4814 42.536 57.4814 42.28H58.2814L58.2174 45.96L58.2814 49.704H57.4814C57.4387 48.2533 57.0547 47.016 56.3294 45.992C55.6254 44.9467 54.7294 44.1573 53.6414 43.624C52.5747 43.0693 51.4654 42.792 50.3134 42.792C47.8174 42.792 45.9507 43.7307 44.7134 45.608C43.476 47.4853 42.8574 50.1627 42.8574 53.64C42.8574 57.3093 43.5187 60.0187 44.8414 61.768C46.164 63.5173 48.02 64.392 50.4094 64.392C51.604 64.392 52.66 64.2 53.5774 63.816C54.4947 63.432 55.22 62.9307 55.7534 62.312C56.2867 61.672 56.5534 61.0107 56.5534 60.328V59.432C56.5534 58.4933 56.3294 57.8213 55.8814 57.416C55.4547 57.0107 54.6547 56.7547 53.4814 56.648L52.1054 56.52V55.752L57.4174 55.88L62.3454 55.752V56.52L60.9054 56.648C60.3294 56.6907 59.86 56.9147 59.4974 57.32C59.1347 57.7253 58.9534 58.4293 58.9534 59.432V60.008C58.9534 60.4987 59.028 60.9573 59.1774 61.384C59.348 61.8107 59.508 62.1733 59.6574 62.472L60.1054 63.272L59.3694 63.752C59.092 63.304 58.8147 63.0053 58.5374 62.856C58.2814 62.6853 58.0574 62.6 57.8654 62.6C57.524 62.6 57.2147 62.6853 56.9374 62.856C56.66 63.0267 56.3614 63.2293 56.0414 63.464C55.6787 63.72 55.2414 63.9973 54.7294 64.296C54.2387 64.5947 53.6307 64.84 52.9054 65.032C52.18 65.2453 51.284 65.352 50.2174 65.352ZM63.6394 65.096V64.296L64.2794 64.232C65.026 64.1467 65.5914 64.04 65.9754 63.912C66.3807 63.7627 66.658 63.464 66.8074 63.016C66.9567 62.5467 67.0314 61.7893 67.0314 60.744V46.536C67.0314 45.4693 66.9567 44.712 66.8074 44.264C66.658 43.816 66.3807 43.528 65.9754 43.4C65.5914 43.2507 65.026 43.1333 64.2794 43.048L63.6394 42.984V42.184L68.3754 42.28H68.4074L73.1434 42.184V42.984L72.5034 43.048C71.778 43.1333 71.2127 43.2507 70.8074 43.4C70.402 43.528 70.1247 43.816 69.9754 44.264C69.826 44.712 69.7514 45.4693 69.7514 46.536V60.744C69.7514 61.7893 69.826 62.5467 69.9754 63.016C70.1247 63.464 70.402 63.7627 70.8074 63.912C71.2127 64.04 71.778 64.1467 72.5034 64.232L73.1434 64.296V65.096L68.4074 65H68.3754L63.6394 65.096ZM81.0139 65.096V64.296L81.7179 64.232C82.5925 64.1467 83.2539 64.04 83.7019 63.912C84.1712 63.7627 84.4912 63.464 84.6619 63.016C84.8539 62.5467 84.9499 61.7893 84.9499 60.744V43.144H80.4379C79.4565 43.144 78.6779 43.336 78.1019 43.72C77.5472 44.0827 77.0565 44.68 76.6299 45.512C76.2245 46.344 75.7445 47.4533 75.1899 48.84L74.5179 48.68L75.3179 44.744L75.6699 42.184L84.7899 42.28H87.8299L96.9819 42.184L97.3339 44.744L98.1339 48.68L97.4299 48.872C96.9392 47.6347 96.4805 46.5893 96.0539 45.736C95.6485 44.8827 95.1685 44.2427 94.6139 43.816C94.0592 43.368 93.3232 43.144 92.4059 43.144H87.6699V60.744C87.6699 61.7893 87.7552 62.5467 87.9259 63.016C88.1179 63.464 88.4485 63.7627 88.9179 63.912C89.3872 64.04 90.0485 64.1467 90.9019 64.232L91.6059 64.296V65.096L86.3899 65L81.0139 65.096ZM96.0044 65.096V64.296L96.2924 64.264C97.039 64.1573 97.647 64.008 98.1164 63.816C98.607 63.624 99.023 63.3147 99.3644 62.888C99.727 62.44 100.068 61.832 100.388 61.064L108.132 42.28H109.22L116.772 61.064C117.199 62.1093 117.658 62.8773 118.148 63.368C118.639 63.8587 119.311 64.1467 120.164 64.232L120.804 64.296V65.096L116.836 65L111.716 65.096V64.296L112.356 64.232C113.103 64.1467 113.636 63.9867 113.956 63.752C114.276 63.5173 114.436 63.1867 114.436 62.76C114.436 62.3333 114.287 61.7573 113.988 61.032L112.324 56.872H103.3L101.572 61.032C101.423 61.416 101.295 61.768 101.188 62.088C101.082 62.3867 101.028 62.6533 101.028 62.888C101.028 63.2933 101.199 63.6027 101.54 63.816C101.903 64.0293 102.49 64.168 103.3 64.232L103.94 64.296V65.096L99.8764 65L96.0044 65.096ZM103.716 55.848H111.94L107.908 45.704L103.716 55.848ZM121.608 65.096V64.296L122.248 64.232C122.995 64.1467 123.56 64.04 123.944 63.912C124.349 63.784 124.627 63.4853 124.776 63.016C124.925 62.5467 125 61.7893 125 60.744V46.536C125 45.4693 124.925 44.712 124.776 44.264C124.627 43.7947 124.349 43.496 123.944 43.368C123.56 43.2187 122.995 43.112 122.248 43.048L121.608 42.984V42.184L126.408 42.28L130.536 42.184V42.92L130.024 42.984C129.405 43.048 128.925 43.144 128.584 43.272C128.264 43.4 128.04 43.6773 127.912 44.104C127.784 44.5093 127.72 45.192 127.72 46.152V59.496C127.72 60.5413 127.773 61.4053 127.88 62.088C128.008 62.7707 128.339 63.272 128.872 63.592C129.405 63.912 130.269 64.072 131.464 64.072H133.864C135.72 64.072 137.053 63.5813 137.864 62.6C138.696 61.5973 139.187 60.1573 139.336 58.28H140.04L139.72 65.096L126.344 65L121.608 65.096Z" fill="#1E1E1E"/>
</svg>
